# xmcd
#
# Track frame offsets: 
#        150
#        17741
#        36357
#        54043
#        70923
#        85052
#        99870
#        117478
#        136239
#        153870
#        175256
#        190924
#        211567
#        227911
#        246169
#        266567
#        280542
#        299483
#        317703
#        334762
#
# Disc length: 4681 seconds
#
# Revision: 0
# Processed by: cddbd v1.5.2PL0 Copyright (c) Steve Scherf et al.
# Submitted via: ExactAudioCopy v0.99pb5
#
DISCID=12124714
DTITLE=Various Artist - Nu Urban Traxx #148
DYEAR=2010
DGENRE=R&B
TTITLE0=Omarrion - Speedin
TTITLE1=Gucci Mane - Lemonade
TTITLE2=Mariah Carey Ft Ne Yo - Angels Cry
TTITLE3=Rihanna - Rude Boy
TTITLE4=Trey Songz - Neighbors Know My Name
TTITLE5=Alicia Keys Ft Beyonce - Put It In A Love Song
TTITLE6=Black Eyed Peas - Imma Be
TTITLE7=Lil' Wayne - On Fire
TTITLE8=Bone - Homegurl (He Gotta)
TTITLE9=Usher - There Goes My Baby
TTITLE10=50 Cent - Do You Think About Me
TTITLE11=Monica - One In A Lifetime
TTITLE12=Yo Gotti Ft Lil' Wayne - Women Lie Men Lie
TTITLE13=Timbaland Ft Drake - Say Something
TTITLE14=Sade - Soldier Of Love
TTITLE15=R Kelly - Religious
TTITLE16=Wale - Pretty Girls
TTITLE17=Robin Thicke Ft Ludacris - Sex Therapy (Luda Remix)
TTITLE18=Pretty Ricky - Say A Command
TTITLE19=Janet Jackson - Make Me
EXTD=
EXTT0=
EXTT1=
EXTT2=
EXTT3=
EXTT4=
EXTT5=
EXTT6=
EXTT7=
EXTT8=
EXTT9=
EXTT10=
EXTT11=
EXTT12=
EXTT13=
EXTT14=
EXTT15=
EXTT16=
EXTT17=
EXTT18=
EXTT19=
PLAYORDER=
